<?xml version="1.0" encoding="UTF-8"?>
<!-- Generator: Adobe Illustrator 19.2.1, SVG Export Plug-In . SVG Version: 6.00 Build 0)  -->
<!DOCTYPE svg PUBLIC "-//W3C//DTD SVG 1.1//EN" "http://www.w3.org/Graphics/SVG/1.1/DTD/svg11.dtd">
<svg class="logo" version="1.1" id="Capa_1" xmlns="http://www.w3.org/2000/svg" xmlns:xlink="http://www.w3.org/1999/xlink" x="0px" y="0px" viewBox="0 0 208.1 38.3" enable-background="new 0 0 208.1 38.3" xml:space="preserve" width="100px">
<g>
	<g>
		<path d="M189.6,32c-7.1,0-12.9-5.8-12.9-12.9c0-7.1,5.8-12.9,12.9-12.9c5.3,0,9.8,3.2,11.8,7.7h6.6c-2.2-8.1-9.6-14-18.4-14    c-10.6,0-19.1,8.6-19.1,19.1s8.6,19.1,19.1,19.1c8.8,0,16.2-5.9,18.4-14h-6.6C199.4,28.8,194.9,32,189.6,32z"/>
	</g>
	<path d="M137.6,37.5l3.4-9.2h15.5l3.5,9.2h6.8L152.5,0.8h-7.2l-14.3,36.7H137.6z M148.8,7.5l5.6,15h-11.2L148.8,7.5z"/>
	<g>
		<path d="M21.1,11.1c-0.4-2.3-2.3-5.6-7.2-5.6c-3.7,0-6.3,2.5-6.3,5.3c0,2.3,1.4,4.1,4.3,4.7l5.3,1.1c6.5,1.3,9.9,5.4,9.9,10.5    c0,5.7-4.6,11.1-13,11.1c-9.3,0-13.6-6-14.2-11.3l5.8-1.7c0.4,3.8,3.1,7.3,8.4,7.3c4.4,0,6.7-2.2,6.7-5.1c0-2.4-1.8-4.3-4.9-5    l-5.2-1.1c-5.6-1.1-9.3-4.8-9.3-10.3C1.4,5.1,7.1,0,13.9,0c8.6,0,12,5.3,12.8,9.4L21.1,11.1z"/>
		<path d="M76,6.6v30.8h-6.2V6.6H57.9V0.8h30v5.8H76z"/>
		<polygon points="50.4,6.6 50.4,0.8 46,0.8 40.3,0.8 35.9,0.8 35.9,6.6 40.3,6.6 40.3,31.6 35.9,31.6 35.9,37.4 40.3,37.4 46,37.4     50.4,37.4 50.4,31.6 46,31.6 46,6.6   "/>
	</g>
	<rect x="95.1" y="31.7" width="28.7" height="5.8"/>
</g>
</svg>